# MagicaVoxel @ Ephtracy

# group
g untitled

# material
mtllib untitled.mtl
usemtl palette

# normals
vn -1 0 0
vn 1 0 0
vn 0 0 1
vn 0 0 -1
vn 0 -1 0
vn 0 1 0

# texcoords
vt 0.337891 0.5
vt 0.369141 0.5
vt 0.505859 0.5
vt 0.509766 0.5
vt 0.677734 0.5
vt 0.986328 0.5
vt 0.990234 0.5

# verts
v -7.5 1 0.5
v -7.5 1 -0.5
v -7.5 5 0.5
v -7.5 5 -0.5
v -6.5 0 0.5
v -6.5 0 -0.5
v -6.5 1 0.5
v -6.5 1 -0.5
v -6.5 5 0.5
v -6.5 5 -0.5
v -6.5 8 0.5
v -6.5 8 -0.5
v -5.5 8 0.5
v -5.5 8 -0.5
v -5.5 10 0.5
v -5.5 10 -0.5
v -4.5 10 0.5
v -4.5 10 -0.5
v -4.5 11 0.5
v -4.5 11 -0.5
v -3.5 3 0.5
v -3.5 3 -0.5
v -3.5 4 0.5
v -3.5 4 -0.5
v -3.5 11 0.5
v -3.5 11 -0.5
v -3.5 12 0.5
v -3.5 12 -0.5
v -2.5 4 0.5
v -2.5 4 -0.5
v -2.5 5 0.5
v -2.5 5 -0.5
v -2.5 12 0.5
v -2.5 12 -0.5
v -2.5 13 0.5
v -2.5 13 -0.5
v -1.5 5 0.5
v -1.5 5 -0.5
v -1.5 6 0.5
v -1.5 6 -0.5
v -0.5 6 0.5
v -0.5 6 -0.5
v -0.5 7 0.5
v -0.5 7 -0.5
v -0.5 13 0.5
v -0.5 13 -0.5
v -0.5 14 0.5
v -0.5 14 -0.5
v 0.5 7 0.5
v 0.5 7 -0.5
v 0.5 8 0.5
v 0.5 8 -0.5
v 1.5 8 0.5
v 1.5 8 -0.5
v 1.5 9 0.5
v 1.5 9 -0.5
v 2.5 9 0.5
v 2.5 9 -0.5
v 2.5 10 0.5
v 2.5 10 -0.5
v 2.5 14 0.5
v 2.5 14 -0.5
v 2.5 15 0.5
v 2.5 15 -0.5
v 3.5 10 0.5
v 3.5 10 -0.5
v 3.5 11 0.5
v 3.5 11 -0.5
v 4.5 11 0.5
v 4.5 11 -0.5
v 4.5 12 0.5
v 4.5 12 -0.5
v -5.5 0 0.5
v -5.5 0 -0.5
v -5.5 1 0.5
v -5.5 1 -0.5
v -4.5 1 0.5
v -4.5 1 -0.5
v -4.5 2 0.5
v -4.5 2 -0.5
v -4.5 3 0.5
v -4.5 3 -0.5
v -4.5 5 0.5
v -4.5 5 -0.5
v -3.5 2 0.5
v -3.5 2 -0.5
v -3.5 3 0.5
v -3.5 3 -0.5
v -3.5 5 0.5
v -3.5 5 -0.5
v -3.5 8 0.5
v -3.5 8 -0.5
v -2.5 3 0.5
v -2.5 3 -0.5
v -2.5 4 0.5
v -2.5 4 -0.5
v -2.5 8 0.5
v -2.5 8 -0.5
v -2.5 9 0.5
v -2.5 9 -0.5
v -1.5 4 0.5
v -1.5 4 -0.5
v -1.5 5 0.5
v -1.5 5 -0.5
v -1.5 9 0.5
v -1.5 9 -0.5
v -1.5 10 0.5
v -1.5 10 -0.5
v -0.5 5 0.5
v -0.5 5 -0.5
v -0.5 6 0.5
v -0.5 6 -0.5
v -0.5 10 0.5
v -0.5 10 -0.5
v -0.5 11 0.5
v -0.5 11 -0.5
v 0.5 6 0.5
v 0.5 6 -0.5
v 0.5 7 0.5
v 0.5 7 -0.5
v 1.5 7 0.5
v 1.5 7 -0.5
v 1.5 8 0.5
v 1.5 8 -0.5
v 2.5 8 0.5
v 2.5 8 -0.5
v 2.5 9 0.5
v 2.5 9 -0.5
v 2.5 11 0.5
v 2.5 11 -0.5
v 2.5 12 0.5
v 2.5 12 -0.5
v 3.5 9 0.5
v 3.5 9 -0.5
v 3.5 10 0.5
v 3.5 10 -0.5
v 4.5 10 0.5
v 4.5 10 -0.5
v 4.5 11 0.5
v 4.5 11 -0.5
v 5.5 11 0.5
v 5.5 11 -0.5
v 5.5 12 0.5
v 5.5 12 -0.5
v 6.5 12 0.5
v 6.5 12 -0.5
v 6.5 13 0.5
v 6.5 13 -0.5
v 6.5 14 0.5
v 6.5 14 -0.5
v 6.5 15 0.5
v 6.5 15 -0.5
v 7.5 13 0.5
v 7.5 13 -0.5
v 7.5 14 0.5
v 7.5 14 -0.5
v -7.5 1 0.5
v -7.5 5 0.5
v -6.5 0 0.5
v -6.5 1 0.5
v -6.5 2 0.5
v -6.5 4 0.5
v -6.5 5 0.5
v -6.5 8 0.5
v -5.5 0 0.5
v -5.5 1 0.5
v -5.5 2 0.5
v -5.5 4 0.5
v -5.5 5 0.5
v -5.5 6 0.5
v -5.5 7 0.5
v -5.5 8 0.5
v -5.5 10 0.5
v -4.5 1 0.5
v -4.5 2 0.5
v -4.5 3 0.5
v -4.5 5 0.5
v -4.5 6 0.5
v -4.5 7 0.5
v -4.5 8 0.5
v -4.5 9 0.5
v -4.5 10 0.5
v -4.5 11 0.5
v -3.5 2 0.5
v -3.5 3 0.5
v -3.5 4 0.5
v -3.5 5 0.5
v -3.5 8 0.5
v -3.5 9 0.5
v -3.5 10 0.5
v -3.5 11 0.5
v -3.5 12 0.5
v -2.5 3 0.5
v -2.5 4 0.5
v -2.5 5 0.5
v -2.5 8 0.5
v -2.5 9 0.5
v -2.5 10 0.5
v -2.5 11 0.5
v -2.5 12 0.5
v -2.5 13 0.5
v -1.5 4 0.5
v -1.5 5 0.5
v -1.5 6 0.5
v -1.5 9 0.5
v -1.5 10 0.5
v -1.5 11 0.5
v -1.5 12 0.5
v -0.5 5 0.5
v -0.5 6 0.5
v -0.5 7 0.5
v -0.5 10 0.5
v -0.5 11 0.5
v -0.5 12 0.5
v -0.5 13 0.5
v -0.5 14 0.5
v 0.5 6 0.5
v 0.5 7 0.5
v 0.5 8 0.5
v 0.5 12 0.5
v 0.5 13 0.5
v 1.5 7 0.5
v 1.5 8 0.5
v 1.5 9 0.5
v 1.5 12 0.5
v 1.5 13 0.5
v 2.5 8 0.5
v 2.5 9 0.5
v 2.5 10 0.5
v 2.5 11 0.5
v 2.5 12 0.5
v 2.5 13 0.5
v 2.5 14 0.5
v 2.5 15 0.5
v 3.5 9 0.5
v 3.5 10 0.5
v 3.5 11 0.5
v 3.5 13 0.5
v 3.5 14 0.5
v 4.5 10 0.5
v 4.5 11 0.5
v 4.5 12 0.5
v 5.5 11 0.5
v 5.5 12 0.5
v 5.5 13 0.5
v 5.5 14 0.5
v 6.5 12 0.5
v 6.5 13 0.5
v 6.5 14 0.5
v 6.5 15 0.5
v 7.5 13 0.5
v 7.5 14 0.5
v -7.5 1 -0.5
v -7.5 5 -0.5
v -6.5 0 -0.5
v -6.5 1 -0.5
v -6.5 2 -0.5
v -6.5 4 -0.5
v -6.5 5 -0.5
v -6.5 8 -0.5
v -5.5 0 -0.5
v -5.5 1 -0.5
v -5.5 2 -0.5
v -5.5 4 -0.5
v -5.5 5 -0.5
v -5.5 6 -0.5
v -5.5 7 -0.5
v -5.5 8 -0.5
v -5.5 10 -0.5
v -4.5 1 -0.5
v -4.5 2 -0.5
v -4.5 3 -0.5
v -4.5 5 -0.5
v -4.5 6 -0.5
v -4.5 7 -0.5
v -4.5 8 -0.5
v -4.5 9 -0.5
v -4.5 10 -0.5
v -4.5 11 -0.5
v -3.5 2 -0.5
v -3.5 3 -0.5
v -3.5 4 -0.5
v -3.5 5 -0.5
v -3.5 8 -0.5
v -3.5 9 -0.5
v -3.5 10 -0.5
v -3.5 11 -0.5
v -3.5 12 -0.5
v -2.5 3 -0.5
v -2.5 4 -0.5
v -2.5 5 -0.5
v -2.5 8 -0.5
v -2.5 9 -0.5
v -2.5 10 -0.5
v -2.5 11 -0.5
v -2.5 12 -0.5
v -2.5 13 -0.5
v -1.5 4 -0.5
v -1.5 5 -0.5
v -1.5 6 -0.5
v -1.5 9 -0.5
v -1.5 10 -0.5
v -1.5 11 -0.5
v -1.5 12 -0.5
v -0.5 5 -0.5
v -0.5 6 -0.5
v -0.5 7 -0.5
v -0.5 10 -0.5
v -0.5 11 -0.5
v -0.5 12 -0.5
v -0.5 13 -0.5
v -0.5 14 -0.5
v 0.5 6 -0.5
v 0.5 7 -0.5
v 0.5 8 -0.5
v 0.5 12 -0.5
v 0.5 13 -0.5
v 1.5 7 -0.5
v 1.5 8 -0.5
v 1.5 9 -0.5
v 1.5 12 -0.5
v 1.5 13 -0.5
v 2.5 8 -0.5
v 2.5 9 -0.5
v 2.5 10 -0.5
v 2.5 11 -0.5
v 2.5 12 -0.5
v 2.5 13 -0.5
v 2.5 14 -0.5
v 2.5 15 -0.5
v 3.5 9 -0.5
v 3.5 10 -0.5
v 3.5 11 -0.5
v 3.5 13 -0.5
v 3.5 14 -0.5
v 4.5 10 -0.5
v 4.5 11 -0.5
v 4.5 12 -0.5
v 5.5 11 -0.5
v 5.5 12 -0.5
v 5.5 13 -0.5
v 5.5 14 -0.5
v 6.5 12 -0.5
v 6.5 13 -0.5
v 6.5 14 -0.5
v 6.5 15 -0.5
v 7.5 13 -0.5
v 7.5 14 -0.5
v -6.5 0 0.5
v -5.5 0 0.5
v -6.5 0 -0.5
v -5.5 0 -0.5
v -7.5 1 0.5
v -6.5 1 0.5
v -5.5 1 0.5
v -4.5 1 0.5
v -7.5 1 -0.5
v -6.5 1 -0.5
v -5.5 1 -0.5
v -4.5 1 -0.5
v -4.5 2 0.5
v -3.5 2 0.5
v -4.5 2 -0.5
v -3.5 2 -0.5
v -3.5 3 0.5
v -2.5 3 0.5
v -3.5 3 -0.5
v -2.5 3 -0.5
v -2.5 4 0.5
v -1.5 4 0.5
v -2.5 4 -0.5
v -1.5 4 -0.5
v -4.5 5 0.5
v -3.5 5 0.5
v -1.5 5 0.5
v -0.5 5 0.5
v -4.5 5 -0.5
v -3.5 5 -0.5
v -1.5 5 -0.5
v -0.5 5 -0.5
v -0.5 6 0.5
v 0.5 6 0.5
v -0.5 6 -0.5
v 0.5 6 -0.5
v 0.5 7 0.5
v 1.5 7 0.5
v 0.5 7 -0.5
v 1.5 7 -0.5
v -3.5 8 0.5
v -2.5 8 0.5
v 1.5 8 0.5
v 2.5 8 0.5
v -3.5 8 -0.5
v -2.5 8 -0.5
v 1.5 8 -0.5
v 2.5 8 -0.5
v -2.5 9 0.5
v -1.5 9 0.5
v 2.5 9 0.5
v 3.5 9 0.5
v -2.5 9 -0.5
v -1.5 9 -0.5
v 2.5 9 -0.5
v 3.5 9 -0.5
v -1.5 10 0.5
v -0.5 10 0.5
v 3.5 10 0.5
v 4.5 10 0.5
v -1.5 10 -0.5
v -0.5 10 -0.5
v 3.5 10 -0.5
v 4.5 10 -0.5
v -0.5 11 0.5
v 2.5 11 0.5
v 4.5 11 0.5
v 5.5 11 0.5
v -0.5 11 -0.5
v 2.5 11 -0.5
v 4.5 11 -0.5
v 5.5 11 -0.5
v 2.5 12 0.5
v 4.5 12 0.5
v 5.5 12 0.5
v 6.5 12 0.5
v 2.5 12 -0.5
v 4.5 12 -0.5
v 5.5 12 -0.5
v 6.5 12 -0.5
v 6.5 13 0.5
v 7.5 13 0.5
v 6.5 13 -0.5
v 7.5 13 -0.5
v -4.5 3 0.5
v -3.5 3 0.5
v -4.5 3 -0.5
v -3.5 3 -0.5
v -3.5 4 0.5
v -2.5 4 0.5
v -3.5 4 -0.5
v -2.5 4 -0.5
v -7.5 5 0.5
v -6.5 5 0.5
v -2.5 5 0.5
v -1.5 5 0.5
v -7.5 5 -0.5
v -6.5 5 -0.5
v -2.5 5 -0.5
v -1.5 5 -0.5
v -1.5 6 0.5
v -0.5 6 0.5
v -1.5 6 -0.5
v -0.5 6 -0.5
v -0.5 7 0.5
v 0.5 7 0.5
v -0.5 7 -0.5
v 0.5 7 -0.5
v -6.5 8 0.5
v -5.5 8 0.5
v 0.5 8 0.5
v 1.5 8 0.5
v -6.5 8 -0.5
v -5.5 8 -0.5
v 0.5 8 -0.5
v 1.5 8 -0.5
v 1.5 9 0.5
v 2.5 9 0.5
v 1.5 9 -0.5
v 2.5 9 -0.5
v -5.5 10 0.5
v -4.5 10 0.5
v 2.5 10 0.5
v 3.5 10 0.5
v -5.5 10 -0.5
v -4.5 10 -0.5
v 2.5 10 -0.5
v 3.5 10 -0.5
v -4.5 11 0.5
v -3.5 11 0.5
v 3.5 11 0.5
v 4.5 11 0.5
v -4.5 11 -0.5
v -3.5 11 -0.5
v 3.5 11 -0.5
v 4.5 11 -0.5
v -3.5 12 0.5
v -2.5 12 0.5
v -3.5 12 -0.5
v -2.5 12 -0.5
v -2.5 13 0.5
v -0.5 13 0.5
v -2.5 13 -0.5
v -0.5 13 -0.5
v -0.5 14 0.5
v 2.5 14 0.5
v 6.5 14 0.5
v 7.5 14 0.5
v -0.5 14 -0.5
v 2.5 14 -0.5
v 6.5 14 -0.5
v 7.5 14 -0.5
v 2.5 15 0.5
v 6.5 15 0.5
v 2.5 15 -0.5
v 6.5 15 -0.5

# faces
f 3/5/1 2/5/1 1/5/1
f 4/5/1 2/5/1 3/5/1
f 7/7/1 6/7/1 5/7/1
f 8/7/1 6/7/1 7/7/1
f 11/5/1 10/5/1 9/5/1
f 12/5/1 10/5/1 11/5/1
f 15/5/1 14/5/1 13/5/1
f 16/5/1 14/5/1 15/5/1
f 19/5/1 18/5/1 17/5/1
f 20/5/1 18/5/1 19/5/1
f 23/6/1 22/6/1 21/6/1
f 24/6/1 22/6/1 23/6/1
f 27/5/1 26/5/1 25/5/1
f 28/5/1 26/5/1 27/5/1
f 31/6/1 30/6/1 29/6/1
f 32/6/1 30/6/1 31/6/1
f 35/5/1 34/5/1 33/5/1
f 36/5/1 34/5/1 35/5/1
f 39/6/1 38/6/1 37/6/1
f 40/6/1 38/6/1 39/6/1
f 43/6/1 42/6/1 41/6/1
f 44/6/1 42/6/1 43/6/1
f 47/5/1 46/5/1 45/5/1
f 48/5/1 46/5/1 47/5/1
f 51/6/1 50/6/1 49/6/1
f 52/6/1 50/6/1 51/6/1
f 55/6/1 54/6/1 53/6/1
f 56/6/1 54/6/1 55/6/1
f 59/6/1 58/6/1 57/6/1
f 60/6/1 58/6/1 59/6/1
f 63/5/1 62/5/1 61/5/1
f 64/5/1 62/5/1 63/5/1
f 67/6/1 66/6/1 65/6/1
f 68/6/1 66/6/1 67/6/1
f 71/6/1 70/6/1 69/6/1
f 72/6/1 70/6/1 71/6/1
f 73/7/2 74/7/2 75/7/2
f 75/7/2 74/7/2 76/7/2
f 77/7/2 78/7/2 79/7/2
f 79/7/2 78/7/2 80/7/2
f 81/7/2 82/7/2 83/7/2
f 83/7/2 82/7/2 84/7/2
f 85/6/2 86/6/2 87/6/2
f 87/6/2 86/6/2 88/6/2
f 89/7/2 90/7/2 91/7/2
f 91/7/2 90/7/2 92/7/2
f 93/6/2 94/6/2 95/6/2
f 95/6/2 94/6/2 96/6/2
f 97/3/2 98/3/2 99/3/2
f 99/3/2 98/3/2 100/3/2
f 101/6/2 102/6/2 103/6/2
f 103/6/2 102/6/2 104/6/2
f 105/3/2 106/3/2 107/3/2
f 107/3/2 106/3/2 108/3/2
f 109/6/2 110/6/2 111/6/2
f 111/6/2 110/6/2 112/6/2
f 113/3/2 114/3/2 115/3/2
f 115/3/2 114/3/2 116/3/2
f 117/6/2 118/6/2 119/6/2
f 119/6/2 118/6/2 120/6/2
f 121/6/2 122/6/2 123/6/2
f 123/6/2 122/6/2 124/6/2
f 125/6/2 126/6/2 127/6/2
f 127/6/2 126/6/2 128/6/2
f 129/7/2 130/7/2 131/7/2
f 131/7/2 130/7/2 132/7/2
f 133/6/2 134/6/2 135/6/2
f 135/6/2 134/6/2 136/6/2
f 137/6/2 138/6/2 139/6/2
f 139/6/2 138/6/2 140/6/2
f 141/6/2 142/6/2 143/6/2
f 143/6/2 142/6/2 144/6/2
f 145/7/2 146/7/2 147/7/2
f 147/7/2 146/7/2 148/7/2
f 149/5/2 150/5/2 151/5/2
f 151/5/2 150/5/2 152/5/2
f 153/7/2 154/7/2 155/7/2
f 155/7/2 154/7/2 156/7/2
f 160/5/3 158/5/3 157/5/3
f 161/5/3 158/5/3 160/5/3
f 162/5/3 158/5/3 161/5/3
f 163/5/3 158/5/3 162/5/3
f 165/7/3 160/7/3 159/7/3
f 166/2/3 161/2/3 160/2/3
f 166/7/3 160/7/3 165/7/3
f 167/4/3 162/4/3 161/4/3
f 167/2/3 161/2/3 166/2/3
f 168/2/3 163/2/3 162/2/3
f 168/4/3 162/4/3 167/4/3
f 169/5/3 164/5/3 163/5/3
f 169/2/3 163/2/3 168/2/3
f 170/5/3 164/5/3 169/5/3
f 171/5/3 164/5/3 170/5/3
f 172/5/3 164/5/3 171/5/3
f 174/7/3 168/7/3 167/7/3
f 174/7/3 167/7/3 166/7/3
f 174/7/3 169/7/3 168/7/3
f 175/7/3 169/7/3 174/7/3
f 176/7/3 169/7/3 175/7/3
f 177/2/3 170/2/3 169/2/3
f 177/7/3 169/7/3 176/7/3
f 178/4/3 171/4/3 170/4/3
f 178/2/3 170/2/3 177/2/3
f 179/2/3 172/2/3 171/2/3
f 179/4/3 171/4/3 178/4/3
f 180/5/3 173/5/3 172/5/3
f 180/2/3 172/2/3 179/2/3
f 181/5/3 173/5/3 180/5/3
f 182/5/3 173/5/3 181/5/3
f 184/6/3 176/6/3 175/6/3
f 185/6/3 176/6/3 184/6/3
f 187/7/3 179/7/3 178/7/3
f 187/7/3 178/7/3 177/7/3
f 187/7/3 180/7/3 179/7/3
f 188/4/3 181/4/3 180/4/3
f 188/7/3 180/7/3 187/7/3
f 189/3/3 182/3/3 181/3/3
f 189/4/3 181/4/3 188/4/3
f 190/5/3 183/5/3 182/5/3
f 190/3/3 182/3/3 189/3/3
f 191/5/3 183/5/3 190/5/3
f 193/6/3 186/6/3 185/6/3
f 194/6/3 186/6/3 193/6/3
f 196/3/3 189/3/3 188/3/3
f 197/1/3 190/1/3 189/1/3
f 197/3/3 189/3/3 196/3/3
f 198/3/3 191/3/3 190/3/3
f 198/1/3 190/1/3 197/1/3
f 199/5/3 192/5/3 191/5/3
f 199/3/3 191/3/3 198/3/3
f 200/5/3 192/5/3 199/5/3
f 202/6/3 195/6/3 194/6/3
f 203/6/3 195/6/3 202/6/3
f 205/3/3 198/3/3 197/3/3
f 206/1/3 199/1/3 198/1/3
f 206/3/3 198/3/3 205/3/3
f 207/3/3 200/3/3 199/3/3
f 207/1/3 199/1/3 206/1/3
f 208/5/3 201/5/3 200/5/3
f 208/3/3 200/3/3 207/3/3
f 209/6/3 204/6/3 203/6/3
f 210/6/3 204/6/3 209/6/3
f 212/3/3 207/3/3 206/3/3
f 213/4/3 208/4/3 207/4/3
f 213/3/3 207/3/3 212/3/3
f 214/5/3 201/5/3 208/5/3
f 214/4/3 208/4/3 213/4/3
f 215/5/3 201/5/3 214/5/3
f 217/6/3 211/6/3 210/6/3
f 218/6/3 211/6/3 217/6/3
f 220/2/3 215/2/3 214/2/3
f 220/7/3 214/7/3 213/7/3
f 221/5/3 216/5/3 215/5/3
f 221/2/3 215/2/3 220/2/3
f 222/6/3 219/6/3 218/6/3
f 223/6/3 219/6/3 222/6/3
f 225/7/3 220/7/3 213/7/3
f 225/4/3 221/4/3 220/4/3
f 226/5/3 216/5/3 221/5/3
f 226/4/3 221/4/3 225/4/3
f 227/6/3 224/6/3 223/6/3
f 228/6/3 224/6/3 227/6/3
f 230/7/3 225/7/3 213/7/3
f 231/2/3 226/2/3 225/2/3
f 231/7/3 225/7/3 230/7/3
f 232/5/3 216/5/3 226/5/3
f 232/2/3 226/2/3 231/2/3
f 233/5/3 216/5/3 232/5/3
f 235/6/3 229/6/3 228/6/3
f 236/6/3 229/6/3 235/6/3
f 238/2/3 233/2/3 232/2/3
f 238/7/3 232/7/3 231/7/3
f 239/5/3 234/5/3 233/5/3
f 239/2/3 233/2/3 238/2/3
f 240/6/3 237/6/3 236/6/3
f 241/6/3 237/6/3 240/6/3
f 242/7/3 238/7/3 231/7/3
f 243/6/3 242/6/3 241/6/3
f 244/7/3 238/7/3 242/7/3
f 244/6/3 242/6/3 243/6/3
f 245/4/3 239/4/3 238/4/3
f 245/7/3 238/7/3 244/7/3
f 246/5/3 234/5/3 239/5/3
f 246/4/3 239/4/3 245/4/3
f 247/7/3 245/7/3 244/7/3
f 248/2/3 246/2/3 245/2/3
f 248/7/3 245/7/3 247/7/3
f 249/5/3 234/5/3 246/5/3
f 249/2/3 246/2/3 248/2/3
f 250/5/3 234/5/3 249/5/3
f 251/7/3 249/7/3 248/7/3
f 252/7/3 249/7/3 251/7/3
f 253/5/4 254/5/4 256/5/4
f 256/5/4 254/5/4 257/5/4
f 257/5/4 254/5/4 258/5/4
f 258/5/4 254/5/4 259/5/4
f 255/7/4 256/7/4 261/7/4
f 256/2/4 257/2/4 262/2/4
f 261/7/4 256/7/4 262/7/4
f 257/4/4 258/4/4 263/4/4
f 262/2/4 257/2/4 263/2/4
f 258/2/4 259/2/4 264/2/4
f 263/4/4 258/4/4 264/4/4
f 259/5/4 260/5/4 265/5/4
f 264/2/4 259/2/4 265/2/4
f 265/5/4 260/5/4 266/5/4
f 266/5/4 260/5/4 267/5/4
f 267/5/4 260/5/4 268/5/4
f 263/7/4 264/7/4 270/7/4
f 262/7/4 263/7/4 270/7/4
f 264/7/4 265/7/4 270/7/4
f 270/7/4 265/7/4 271/7/4
f 271/7/4 265/7/4 272/7/4
f 265/2/4 266/2/4 273/2/4
f 272/7/4 265/7/4 273/7/4
f 266/4/4 267/4/4 274/4/4
f 273/2/4 266/2/4 274/2/4
f 267/2/4 268/2/4 275/2/4
f 274/4/4 267/4/4 275/4/4
f 268/5/4 269/5/4 276/5/4
f 275/2/4 268/2/4 276/2/4
f 276/5/4 269/5/4 277/5/4
f 277/5/4 269/5/4 278/5/4
f 271/6/4 272/6/4 280/6/4
f 280/6/4 272/6/4 281/6/4
f 274/7/4 275/7/4 283/7/4
f 273/7/4 274/7/4 283/7/4
f 275/7/4 276/7/4 283/7/4
f 276/4/4 277/4/4 284/4/4
f 283/7/4 276/7/4 284/7/4
f 277/3/4 278/3/4 285/3/4
f 284/4/4 277/4/4 285/4/4
f 278/5/4 279/5/4 286/5/4
f 285/3/4 278/3/4 286/3/4
f 286/5/4 279/5/4 287/5/4
f 281/6/4 282/6/4 289/6/4
f 289/6/4 282/6/4 290/6/4
f 284/3/4 285/3/4 292/3/4
f 285/1/4 286/1/4 293/1/4
f 292/3/4 285/3/4 293/3/4
f 286/3/4 287/3/4 294/3/4
f 293/1/4 286/1/4 294/1/4
f 287/5/4 288/5/4 295/5/4
f 294/3/4 287/3/4 295/3/4
f 295/5/4 288/5/4 296/5/4
f 290/6/4 291/6/4 298/6/4
f 298/6/4 291/6/4 299/6/4
f 293/3/4 294/3/4 301/3/4
f 294/1/4 295/1/4 302/1/4
f 301/3/4 294/3/4 302/3/4
f 295/3/4 296/3/4 303/3/4
f 302/1/4 295/1/4 303/1/4
f 296/5/4 297/5/4 304/5/4
f 303/3/4 296/3/4 304/3/4
f 299/6/4 300/6/4 305/6/4
f 305/6/4 300/6/4 306/6/4
f 302/3/4 303/3/4 308/3/4
f 303/4/4 304/4/4 309/4/4
f 308/3/4 303/3/4 309/3/4
f 304/5/4 297/5/4 310/5/4
f 309/4/4 304/4/4 310/4/4
f 310/5/4 297/5/4 311/5/4
f 306/6/4 307/6/4 313/6/4
f 313/6/4 307/6/4 314/6/4
f 310/2/4 311/2/4 316/2/4
f 309/7/4 310/7/4 316/7/4
f 311/5/4 312/5/4 317/5/4
f 316/2/4 311/2/4 317/2/4
f 314/6/4 315/6/4 318/6/4
f 318/6/4 315/6/4 319/6/4
f 309/7/4 316/7/4 321/7/4
f 316/4/4 317/4/4 321/4/4
f 317/5/4 312/5/4 322/5/4
f 321/4/4 317/4/4 322/4/4
f 319/6/4 320/6/4 323/6/4
f 323/6/4 320/6/4 324/6/4
f 309/7/4 321/7/4 326/7/4
f 321/2/4 322/2/4 327/2/4
f 326/7/4 321/7/4 327/7/4
f 322/5/4 312/5/4 328/5/4
f 327/2/4 322/2/4 328/2/4
f 328/5/4 312/5/4 329/5/4
f 324/6/4 325/6/4 331/6/4
f 331/6/4 325/6/4 332/6/4
f 328/2/4 329/2/4 334/2/4
f 327/7/4 328/7/4 334/7/4
f 329/5/4 330/5/4 335/5/4
f 334/2/4 329/2/4 335/2/4
f 332/6/4 333/6/4 336/6/4
f 336/6/4 333/6/4 337/6/4
f 327/7/4 334/7/4 338/7/4
f 337/6/4 338/6/4 339/6/4
f 338/7/4 334/7/4 340/7/4
f 339/6/4 338/6/4 340/6/4
f 334/4/4 335/4/4 341/4/4
f 340/7/4 334/7/4 341/7/4
f 335/5/4 330/5/4 342/5/4
f 341/4/4 335/4/4 342/4/4
f 340/7/4 341/7/4 343/7/4
f 341/2/4 342/2/4 344/2/4
f 343/7/4 341/7/4 344/7/4
f 342/5/4 330/5/4 345/5/4
f 344/2/4 342/2/4 345/2/4
f 345/5/4 330/5/4 346/5/4
f 344/7/4 345/7/4 347/7/4
f 347/7/4 345/7/4 348/7/4
f 351/7/5 350/7/5 349/7/5
f 352/7/5 350/7/5 351/7/5
f 357/5/5 354/5/5 353/5/5
f 358/5/5 354/5/5 357/5/5
f 359/7/5 356/7/5 355/7/5
f 360/7/5 356/7/5 359/7/5
f 363/6/5 362/6/5 361/6/5
f 364/6/5 362/6/5 363/6/5
f 367/6/5 366/6/5 365/6/5
f 368/6/5 366/6/5 367/6/5
f 371/6/5 370/6/5 369/6/5
f 372/6/5 370/6/5 371/6/5
f 377/7/5 374/7/5 373/7/5
f 378/7/5 374/7/5 377/7/5
f 379/6/5 376/6/5 375/6/5
f 380/6/5 376/6/5 379/6/5
f 383/6/5 382/6/5 381/6/5
f 384/6/5 382/6/5 383/6/5
f 387/6/5 386/6/5 385/6/5
f 388/6/5 386/6/5 387/6/5
f 393/3/5 390/3/5 389/3/5
f 394/3/5 390/3/5 393/3/5
f 395/6/5 392/6/5 391/6/5
f 396/6/5 392/6/5 395/6/5
f 401/3/5 398/3/5 397/3/5
f 402/3/5 398/3/5 401/3/5
f 403/6/5 400/6/5 399/6/5
f 404/6/5 400/6/5 403/6/5
f 409/3/5 406/3/5 405/3/5
f 410/3/5 406/3/5 409/3/5
f 411/6/5 408/6/5 407/6/5
f 412/6/5 408/6/5 411/6/5
f 417/7/5 414/7/5 413/7/5
f 418/7/5 414/7/5 417/7/5
f 419/6/5 416/6/5 415/6/5
f 420/6/5 416/6/5 419/6/5
f 425/7/5 422/7/5 421/7/5
f 426/7/5 422/7/5 425/7/5
f 427/7/5 424/7/5 423/7/5
f 428/7/5 424/7/5 427/7/5
f 431/7/5 430/7/5 429/7/5
f 432/7/5 430/7/5 431/7/5
f 433/6/6 434/6/6 435/6/6
f 435/6/6 434/6/6 436/6/6
f 437/6/6 438/6/6 439/6/6
f 439/6/6 438/6/6 440/6/6
f 441/5/6 442/5/6 445/5/6
f 445/5/6 442/5/6 446/5/6
f 443/6/6 444/6/6 447/6/6
f 447/6/6 444/6/6 448/6/6
f 449/6/6 450/6/6 451/6/6
f 451/6/6 450/6/6 452/6/6
f 453/6/6 454/6/6 455/6/6
f 455/6/6 454/6/6 456/6/6
f 457/5/6 458/5/6 461/5/6
f 461/5/6 458/5/6 462/5/6
f 459/6/6 460/6/6 463/6/6
f 463/6/6 460/6/6 464/6/6
f 465/6/6 466/6/6 467/6/6
f 467/6/6 466/6/6 468/6/6
f 469/5/6 470/5/6 473/5/6
f 473/5/6 470/5/6 474/5/6
f 471/6/6 472/6/6 475/6/6
f 475/6/6 472/6/6 476/6/6
f 477/5/6 478/5/6 481/5/6
f 481/5/6 478/5/6 482/5/6
f 479/6/6 480/6/6 483/6/6
f 483/6/6 480/6/6 484/6/6
f 485/5/6 486/5/6 487/5/6
f 487/5/6 486/5/6 488/5/6
f 489/5/6 490/5/6 491/5/6
f 491/5/6 490/5/6 492/5/6
f 493/5/6 494/5/6 497/5/6
f 497/5/6 494/5/6 498/5/6
f 495/7/6 496/7/6 499/7/6
f 499/7/6 496/7/6 500/7/6
f 501/5/6 502/5/6 503/5/6
f 503/5/6 502/5/6 504/5/6
